<svg width="212" height="212" viewBox="0 0 212 212" fill="none" xmlns="http://www.w3.org/2000/svg">
<path d="M97.1668 118.848C94.9183 120.294 92.5092 122.06 90.2607 123.506C91.2244 118.527 92.0274 113.548 92.991 108.409C93.3123 106.963 93.6335 105.357 94.4365 104.072C95.882 102.306 98.7729 100.86 101.182 100.218" stroke="#383634" stroke-width="3" stroke-linecap="round" stroke-linejoin="round"/>
<path d="M95.2393 58.9424C92.3484 61.3515 91.0635 65.6878 92.1878 69.0606C93.4726 72.7545 96.8454 75.4848 100.539 75.806C101.182 98.4515 101.824 121.097 102.306 143.742C102.306 143.742 102.467 164.3 102.306 181.164" stroke="#383634" stroke-width="3" stroke-linecap="round" stroke-linejoin="round"/>
<path d="M101.985 58.4603C105.036 52.3573 106.964 46.0936 107.606 39.5088" stroke="#383634" stroke-width="3" stroke-linecap="round" stroke-linejoin="round"/>
<path d="M116.6 37.9034C118.527 35.6549 119.652 32.9246 119.973 30.1943" stroke="#383634" stroke-width="3" stroke-linecap="round" stroke-linejoin="round"/>
<path d="M123.185 35.8155C126.879 32.764 129.127 28.5882 129.609 23.9307" stroke="#383634" stroke-width="3" stroke-linecap="round" stroke-linejoin="round"/>
<path d="M131.536 35.9757C134.748 33.406 136.836 29.8727 137.8 26.1787" stroke="#383634" stroke-width="3" stroke-linecap="round" stroke-linejoin="round"/>
<path d="M141.815 35.0119C144.064 31.9604 145.67 28.2665 145.509 24.8937C145.349 21.3604 143.261 17.6665 139.727 15.7392C136.194 13.9725 131.536 14.2937 128.967 17.024C124.791 13.1695 118.046 13.1695 112.906 15.5786C107.606 17.8271 105.197 22.324 102.146 26.6604" stroke="#383634" stroke-width="3" stroke-linecap="round" stroke-linejoin="round"/>
<path d="M95.0789 25.6973C91.2243 27.1427 88.1728 30.5154 87.2092 34.0488C85.9243 37.9033 86.7274 41.7579 89.1364 44.97C84.9607 49.1458 84.3183 56.0518 87.691 60.87" stroke="#383634" stroke-width="3" stroke-linecap="round" stroke-linejoin="round"/>
<path d="M142.458 40.6338C142.458 40.6338 144.867 55.8914 145.509 64.5641C145.83 69.7035 145.991 75.1641 143.261 79.6611C141.976 81.7489 138.924 84.3186 134.267 87.5308C129.609 90.9035 127.361 94.2762 127.361 100.058" stroke="#383634" stroke-width="3" stroke-linecap="round" stroke-linejoin="round"/>
<path d="M125.273 113.87C122.382 116.6 116.439 119.813 112.745 119.973C108.73 120.134 105.036 118.849 101.985 116.44" stroke="#383634" stroke-width="3" stroke-linecap="round" stroke-linejoin="round"/>
<path d="M92.8303 109.212C91.0636 110.497 83.3546 117.082 81.5879 118.366" stroke="#383634" stroke-width="3" stroke-linecap="round" stroke-linejoin="round"/>
<path d="M119.652 166.066C119.652 173.936 119.812 191.603 119.812 199.794" stroke="#383634" stroke-width="3" stroke-linecap="round" stroke-linejoin="round"/>
<path d="M70.8273 164.621C69.5424 179.397 69.3818 192.245 69.3818 199.633" stroke="#383634" stroke-width="3" stroke-linecap="round" stroke-linejoin="round"/>
<path d="M14.9364 122.703C13.8122 119.33 13.491 115.797 15.2576 112.745C17.0243 109.212 20.7182 107.284 23.9304 105.678C30.0334 102.466 35.9758 99.4147 42.0788 96.042C46.094 93.9541 50.4304 91.8662 54.6061 93.3117C57.8182 94.4359 59.9061 97.1662 61.6728 99.8965C69.7031 110.657 76.7698 122.06 82.8728 134.106C84.4789 137.478 86.2455 141.012 85.2819 144.545C84.1576 148.721 80.3031 151.29 76.6092 153.218C70.8273 156.59 65.2061 159.803 59.4243 163.015C54.9273 165.584 49.7879 169.278 44.1667 167.512C40.3122 166.227 38.5455 163.336 36.9395 160.284C35.494 157.875 32.1213 153.86 32.2819 151.13C33.4061 150.809 33.7273 149.042 32.6031 148.4C34.0485 146.954 34.0485 144.384 32.6031 143.1C33.0849 141.172 33.4061 138.924 31.9607 137.478C31.1576 136.675 30.0334 136.515 29.0698 136.033C27.9455 135.39 27.1425 133.303 26.1788 132.339C23.9304 130.09 22.0031 131.054 19.2728 130.09C17.1849 128.966 15.7395 124.951 14.9364 122.703Z" fill="#A6BBFC"/>
<path d="M29.3909 172.973C34.0484 179.397 44.6484 194.494 50.4303 199.633H159.642" stroke="#383634" stroke-width="3" stroke-linecap="round" stroke-linejoin="round"/>
<path d="M36.7788 171.045C34.6909 171.687 31.4788 172.33 29.5515 172.812" stroke="#383634" stroke-width="3" stroke-linecap="round" stroke-linejoin="round"/>
<path d="M30.3545 167.03L26.3394 168.315" stroke="#383634" stroke-width="3" stroke-linecap="round" stroke-linejoin="round"/>
<path d="M23.4485 153.539C25.2152 151.933 29.0698 151.452 31.9607 150.167C32.6031 149.846 33.0849 149.203 33.0849 148.721C33.0849 147.597 31.8001 147.276 30.997 147.115C28.2667 146.473 25.2152 146.473 22.6455 146.794" stroke="#383634" stroke-width="3" stroke-linecap="round" stroke-linejoin="round"/>
<path d="M15.8999 142.296C21.3605 140.53 25.6969 140.851 31.7999 142.296" stroke="#383634" stroke-width="3" stroke-linecap="round" stroke-linejoin="round"/>
<path d="M14.2939 136.997C18.3091 135.23 27.9455 135.551 32.1212 136.997" stroke="#383634" stroke-width="3" stroke-linecap="round" stroke-linejoin="round"/>
<path d="M24.5728 131.697C21.3606 131.054 17.6667 130.412 14.6152 131.536C11.4031 132.66 8.67277 135.069 7.70913 138.442C7.0667 140.691 7.54852 143.26 8.19095 145.348C9.95761 150.969 13.4909 155.788 17.9879 159" stroke="#383634" stroke-width="3" stroke-linecap="round" stroke-linejoin="round"/>
<path d="M12.8485 131.536C10.4394 128.003 8.03032 124.63 6.58487 120.776C5.13941 116.761 4.97881 112.424 6.90608 108.57C9.15456 104.394 13.6515 101.824 17.6667 99.8969C24.894 95.8817 32.603 92.3484 39.8303 88.3333C44.6485 85.7636 50.1091 83.1939 55.2485 84.9605C59.103 86.2454 61.8334 89.6181 64.0818 92.6696C73.8788 105.679 82.7121 119.651 90.2606 133.945C92.3485 138.121 94.4364 142.297 93.3121 146.633C92.0273 151.612 87.0485 154.664 82.7121 157.073C75.9667 160.927 69.703 164.461 62.9576 168.154C56.8546 171.367 50.2697 175.542 43.6849 175.061C38.5455 174.418 36.6182 170.242 33.8879 166.067C30.997 161.409 28.2667 156.751 25.697 151.933" stroke="#383634" stroke-width="3" stroke-linecap="round" stroke-linejoin="round"/>
<path d="M37.1001 156.591C42.2395 158.839 49.4668 161.088 54.6062 163.497" stroke="#383634" stroke-width="3" stroke-linecap="round" stroke-linejoin="round"/>
<path d="M36.2969 143.421C46.0938 146.954 55.8908 150.327 65.6878 153.86" stroke="#383634" stroke-width="3" stroke-linecap="round" stroke-linejoin="round"/>
<path d="M18.4697 123.506C36.297 128.645 81.4273 146.151 81.4273 146.151" stroke="#383634" stroke-width="3" stroke-linecap="round" stroke-linejoin="round"/>
<path d="M21.3606 112.585C39.8303 119.009 61.8333 126.076 80.4636 132.5" stroke="#383634" stroke-width="3" stroke-linecap="round" stroke-linejoin="round"/>
<path d="M32.9243 103.751C44.8092 107.766 56.694 111.46 68.4183 115.475" stroke="#383634" stroke-width="3" stroke-linecap="round" stroke-linejoin="round"/>
<path d="M46.5757 98.1299C50.7514 99.4147 56.3727 101.663 60.5484 102.787" stroke="#383634" stroke-width="3" stroke-linecap="round" stroke-linejoin="round"/>
<path d="M78.5363 135.552C77.0909 141.012 75.6454 146.473 74.2 151.934" stroke="#383634" stroke-width="3" stroke-linecap="round" stroke-linejoin="round"/>
<path d="M70.8272 118.206C67.9363 130.412 63.9212 146.633 61.0303 158.679" stroke="#383634" stroke-width="3" stroke-linecap="round" stroke-linejoin="round"/>
<path d="M60.5485 104.555C55.8909 125.273 51.3939 145.83 46.7363 166.549" stroke="#383634" stroke-width="3" stroke-linecap="round" stroke-linejoin="round"/>
<path d="M48.9848 95.0791C45.2908 115.958 41.2757 136.355 36.2969 156.912" stroke="#383634" stroke-width="3" stroke-linecap="round" stroke-linejoin="round"/>
<path d="M36.7788 100.7C34.3697 111.461 31.8 122.382 29.5515 133.303" stroke="#383634" stroke-width="3" stroke-linecap="round" stroke-linejoin="round"/>
<path d="M24.5728 109.052C23.1273 114.031 20.8788 121.097 19.594 126.237" stroke="#383634" stroke-width="3" stroke-linecap="round" stroke-linejoin="round"/>
<path d="M150.327 181.003C144.064 176.506 137.961 172.009 131.697 167.672C129.127 165.906 126.236 163.497 125.594 160.606C124.951 157.554 126.718 154.663 128.324 152.093C136.354 138.763 146.794 123.024 157.073 111.46C158.518 109.693 160.445 107.766 162.694 107.606C164.461 107.445 166.067 108.409 167.512 109.212C176.345 114.351 185.339 119.33 193.048 125.915C195.297 127.842 197.706 130.09 198.027 132.821C198.348 135.712 196.742 138.442 195.136 140.69C188.873 150.166 182.77 159.803 176.506 169.118C175.382 168.315 174.257 167.672 172.812 167.351C171.688 167.03 170.242 167.19 169.439 167.993C168.636 168.797 168.797 169.6 167.833 170.242C166.87 170.724 165.585 170.884 164.942 171.687C164.621 172.33 164.621 173.133 164.461 173.775C164.139 174.578 163.176 175.221 162.694 175.703C161.409 176.987 161.409 178.593 161.248 180.039C161.088 181.003 160.767 181.484 160.767 182.448C160.767 182.769 161.409 184.857 161.409 184.857C158.679 186.945 152.415 182.448 150.327 181.003Z" fill="#BBE3E5"/>
<path d="M164.782 193.53C159.161 195.297 153.539 191.764 148.882 188.391C141.333 182.77 133.464 177.309 125.755 171.527C122.542 169.118 118.848 166.388 118.527 162.533C117.724 158.679 119.973 155.306 121.9 151.933C131.858 135.23 142.297 118.527 154.985 104.073C156.752 101.985 159.161 99.5757 161.891 99.4151C163.979 99.2545 166.067 100.539 167.994 101.503C178.915 107.927 189.997 114.191 199.955 122.382C202.845 124.791 205.736 127.521 206.379 131.215C206.861 134.909 204.773 138.121 202.685 141.012C196.261 150.809 190.158 160.606 183.733 170.403" stroke="#383634" stroke-width="3" stroke-linecap="round" stroke-linejoin="round"/>
<path d="M188.391 170.403C188.07 175.864 187.588 181.485 185.018 186.303C182.448 191.122 177.148 194.815 171.848 193.691C168.797 193.049 166.227 191.122 164.621 188.552C162.855 186.143 161.73 183.091 160.927 180.361" stroke="#383634" stroke-width="3" stroke-linecap="round" stroke-linejoin="round"/>
<path d="M168.154 183.412C166.388 180.682 165.103 177.631 164.621 174.579" stroke="#383634" stroke-width="3" stroke-linecap="round" stroke-linejoin="round"/>
<path d="M172.973 177.631C171.688 175.222 170.403 172.973 169.118 170.725" stroke="#383634" stroke-width="3" stroke-linecap="round" stroke-linejoin="round"/>
<path d="M171.848 167.512C175.864 168.797 179.076 171.045 181.645 174.097" stroke="#383634" stroke-width="3" stroke-linecap="round" stroke-linejoin="round"/>
<path d="M134.588 149.363C136.997 156.591 139.406 163.978 141.494 171.206" stroke="#383634" stroke-width="3" stroke-linecap="round" stroke-linejoin="round"/>
<path d="M144.385 131.857C149.203 145.991 154.021 159.963 158.679 173.936" stroke="#383634" stroke-width="3" stroke-linecap="round" stroke-linejoin="round"/>
<path d="M157.876 114.512C163.497 130.572 168.958 146.633 174.579 162.372" stroke="#383634" stroke-width="3" stroke-linecap="round" stroke-linejoin="round"/>
<path d="M180.521 120.615C183.573 128.646 186.624 136.676 189.515 144.706" stroke="#383634" stroke-width="3" stroke-linecap="round" stroke-linejoin="round"/>
<path d="M179.879 119.651C169.76 121.257 159.482 122.863 149.364 124.47" stroke="#383634" stroke-width="3" stroke-linecap="round" stroke-linejoin="round"/>
<path d="M194.333 133.464C175.542 136.355 156.751 139.406 138.121 142.137" stroke="#383634" stroke-width="3" stroke-linecap="round" stroke-linejoin="round"/>
<path d="M182.127 153.7C164.3 156.27 146.955 158.679 129.288 161.088" stroke="#383634" stroke-width="3" stroke-linecap="round" stroke-linejoin="round"/>
<path d="M162.533 171.206C157.073 172.17 151.773 173.133 146.312 174.097" stroke="#383634" stroke-width="3" stroke-linecap="round" stroke-linejoin="round"/>
<path d="M179.558 27.7848C180.842 26.6605 182.288 26.1787 183.733 26.1787C185.179 26.1787 186.945 27.1423 187.588 28.4272C188.391 29.8727 187.909 31.7999 186.624 32.603C185.339 33.5666 183.894 33.406 182.449 33.7272C181.003 34.0484 179.397 35.1727 179.718 36.6181" stroke="#383634" stroke-width="3" stroke-linecap="round" stroke-linejoin="round"/>
<path d="M178.755 41.2754L178.594 41.7572" stroke="#383634" stroke-width="3" stroke-linecap="round" stroke-linejoin="round"/>
<path d="M127.2 118.206L132.179 123.828C134.427 118.528 135.391 113.388 136.194 108.57C136.515 107.124 136.033 105.679 135.07 104.394C134.267 103.431 133.624 102.628 132.661 101.664C131.697 100.54 130.091 100.861 129.448 102.146C123.988 113.709 119.812 131.697 119.812 154.343" stroke="#383634" stroke-width="3" stroke-linecap="round" stroke-linejoin="round"/>
<path d="M136.033 111.14C138.924 114.031 143.421 118.206 143.421 118.206" stroke="#383634" stroke-width="3" stroke-linecap="round" stroke-linejoin="round"/>
<path d="M126.236 44.4881C125.112 43.6851 123.667 43.5245 122.543 44.1669C121.258 44.8093 120.615 45.9336 120.615 47.379" stroke="#383634" stroke-width="3" stroke-linecap="round" stroke-linejoin="round"/>
<path d="M141.173 49.7881C140.049 48.8244 138.603 48.5032 137.158 48.985" stroke="#383634" stroke-width="3" stroke-linecap="round" stroke-linejoin="round"/>
<path d="M130.733 72.915C131.697 73.0756 132.339 73.0756 133.303 73.2362" stroke="#383634" stroke-width="3" stroke-linecap="round" stroke-linejoin="round"/>
<path d="M133.143 52.1973C133.464 56.8548 133.946 61.5124 134.588 66.0094L131.858 66.17" stroke="#383634" stroke-width="3" stroke-linecap="round" stroke-linejoin="round"/>
<path d="M139.406 57.8181V56.8545" stroke="#383634" stroke-width="3" stroke-linecap="round" stroke-linejoin="round"/>
<path d="M125.433 57.8181V56.8545" stroke="#383634" stroke-width="3" stroke-linecap="round" stroke-linejoin="round"/>
<path d="M158.679 15.097C159.642 13.4909 161.57 12.2061 163.657 12.2061C165.745 12.2061 167.833 13.8121 167.833 15.7394C167.833 17.1848 166.388 18.4697 165.424 19.5939C164.3 20.7182 163.176 22.003 163.497 23.6091" stroke="#383634" stroke-width="3" stroke-linecap="round" stroke-linejoin="round"/>
<path d="M163.979 28.4271C163.979 28.2665 164.139 28.2665 164.3 28.4271C164.3 28.4271 164.139 28.5877 163.979 28.4271Z" stroke="#383634" stroke-width="3" stroke-linecap="round" stroke-linejoin="round"/>
</svg>
